<svg width="24" height="24" viewBox="0 0 24 24" fill="none" xmlns="http://www.w3.org/2000/svg">
  <path d="M12 2C6.48 2 2 6.48 2 12C2 16.12 4.55 19.64 8.15 21.15C8.07 20.35 8 19.13 8.17 18.27L9.14 14.16C9.14 14.16 8.84 13.56 8.84 12.65C8.84 11.25 9.66 10.22 10.68 10.22C11.54 10.22 11.96 10.86 11.96 11.63C11.96 12.49 11.41 13.78 11.12 14.98C10.88 15.98 11.63 16.8 12.62 16.8C14.42 16.8 15.78 14.97 15.78 12.35C15.78 10.02 14.06 8.37 11.96 8.37C9.52 8.37 8.09 10.17 8.09 12.04C8.09 12.87 8.41 13.77 8.82 14.26C8.82 14.26 8.68 14.82 8.62 15.08C8.54 15.4 8.34 15.4 8.1 15.28C6.82 14.69 6.02 12.92 6.02 11.98C6.02 8.95 8.24 6.19 12.22 6.19C15.42 6.19 17.92 8.49 17.92 12.29C17.92 15.47 15.94 18.01 13.17 18.01C12.14 18.01 11.17 17.48 10.84 16.85L10.22 19.23C9.97 20.19 9.29 21.39 8.85 22.08C9.85 22.37 10.9 22.5 12 22.5C17.52 22.5 22 18.02 22 12.5C22 6.98 17.52 2.5 12 2.5V2Z" fill="currentColor"/>
</svg>
