<svg width="24" height="24" viewBox="0 0 24 24" fill="none" xmlns="http://www.w3.org/2000/svg">
  <path d="M16.53 11.06C16.44 11.02 16.35 10.98 16.25 10.94C16.05 9.17 15.17 7.83 13.55 7.08C12.28 6.49 10.75 6.48 9.47 7.03C7.89 7.71 6.92 9.14 7.04 10.84L8.54 10.74C8.47 9.64 9.15 8.7 10.12 8.28C11.04 7.89 12.14 7.91 13.05 8.33C14.15 8.84 14.68 9.74 14.74 10.85C14.06 10.73 13.33 10.67 12.56 10.69C11.15 10.72 9.87 11.1 8.91 11.87C7.84 12.72 7.37 13.96 7.55 15.19C7.73 16.47 8.52 17.49 9.7 18C10.53 18.36 11.45 18.42 12.35 18.18C13.55 17.85 14.48 17.07 15.07 15.89C15.5 15.04 15.72 14.04 15.75 12.83C16.37 13.21 16.83 13.73 17.08 14.38C17.52 15.53 17.28 16.85 16.41 17.72C15.44 18.69 14.08 19.17 12.21 19.19C10.12 19.17 8.55 18.47 7.55 17.13C6.63 15.9 6.15 14.16 6.13 12C6.15 9.84 6.63 8.1 7.55 6.87C8.55 5.53 10.12 4.83 12.21 4.81C14.32 4.83 15.92 5.54 16.94 6.89C17.43 7.55 17.79 8.37 18.02 9.32L19.48 8.96C19.19 7.79 18.72 6.77 18.09 5.93C16.79 4.2 14.78 3.32 12.22 3.3C9.67 3.32 7.64 4.2 6.32 5.96C5.17 7.5 4.58 9.55 4.55 12C4.58 14.45 5.17 16.5 6.32 18.04C7.64 19.8 9.67 20.68 12.22 20.7C14.55 20.68 16.24 20.03 17.49 18.79C18.79 17.49 19.14 15.55 18.49 13.88C18.06 12.77 17.17 11.82 16.53 11.06ZM12.28 16.72C11.14 17.04 9.96 16.56 9.53 15.93C9.16 15.38 9.06 14.63 9.48 13.91C9.97 13.07 10.96 12.53 12.13 12.19C12.55 12.07 13.52 11.97 14.23 12.07C14.19 14.83 13.55 16.37 12.28 16.72Z" fill="currentColor"/>
</svg>
